<svg xmlns="http://www.w3.org/2000/svg" xmlns:xlink="http://www.w3.org/1999/xlink"><path d="M77.7013 79.9492H81.751V75.8996H77.7013V79.9492Z" fill="#E73E3C"></path><path d="M85.8 79.9492H89.8496V75.8996H85.8V79.9492Z" fill="#E73E3C"></path><path d="M65.5506 83.999H61.501V88.0487H65.5506V83.999Z" fill="#F39416"></path><path d="M65.5506 108.301H61.501V112.35H65.5506V108.301Z" fill="#F39416"></path><path d="M69.5996 112.351V116.4H73.6492H77.6989V112.351H73.6492H69.5996Z" fill="#F39416"></path><path d="M122.249 83.999H118.199V88.0487H122.249V83.999Z" fill="#F39416"></path><path d="M110.101 88.0508V92.1004H114.15H118.2V88.0508H114.15H110.101Z" fill="#F39416"></path><path d="M49.3496 88.0508V92.1004H53.3992H57.4509V88.0508H53.3992H49.3496Z" fill="#F39416"></path><path d="M49.3494 83.999H45.2998V88.0487H49.3494V83.999Z" fill="#F39416"></path><path d="M85.8005 79.9491V75.8994H81.7509V79.9491H77.6992V83.9987H81.7509H85.8005H89.8502V79.9491H85.8005Z" fill="#C42628"></path><path d="M106.051 92.0982V83.9989H97.9517V88.0486H93.9V83.9989H97.9517V79.9493H102.001V67.7983H97.9517V59.6991H77.7014V55.6494H73.6497V59.6991H69.6001V67.7983H65.5505V79.9493H69.6001V83.9989H73.6497V88.0486H69.6001V83.9989H65.5505V88.0486H61.5008V92.0982H57.4512V104.249H61.5008V108.299H69.6001V112.348H102.001V108.299H106.051V104.249H110.101V92.0982H106.051ZM89.8503 71.848V88.0486H85.8007V92.0982H81.7511V88.0486H77.7014V71.848H73.6497V75.8997H69.6001V71.848H73.6497V67.7983H77.7014V71.848H89.8503V67.7983H93.9V71.848H97.9517V75.8997H93.9V71.848H89.8503Z" fill="#FBE93F"></path><path d="M122.249 71.8496H118.199V75.8992H122.249V71.8496Z" fill="#FBE93F"></path><path d="M114.15 79.9492H110.101V83.9989H114.15V79.9492Z" fill="#FBE93F"></path><path d="M118.2 75.8994H114.15V79.9491H118.2V75.8994Z" fill="#FBE93F"></path><path d="M49.3494 71.8496H45.2998V75.8992H49.3494V71.8496Z" fill="#FBE93F"></path><path d="M57.4491 79.9492H53.3994V83.9989H57.4491V79.9492Z" fill="#FBE93F"></path><path d="M53.3992 75.8994H49.3496V79.9491H53.3992V75.8994Z" fill="#FBE93F"></path><path d="M93.8996 39.4512H97.9492V35.4015H93.8996V39.4512Z" fill="#F3F3F3"></path><path d="M89.8498 35.4014H93.8994V31.3517H89.8498V35.4014Z" fill="#F3F3F3"></path><path d="M73.6515 39.4512H77.7012V35.4015H73.6515V39.4512Z" fill="#F3F3F3"></path><path d="M69.5998 35.4014H73.6494V31.3517H69.5998V35.4014Z" fill="#F3F3F3"></path><path d="M122.249 88.0508H118.199V92.1004H122.249V88.0508Z" fill="black"></path><path d="M118.2 71.8496H114.15V75.8992H118.2V71.8496Z" fill="black"></path><path d="M122.249 67.8008H118.199V71.8504H122.249V67.8008Z" fill="black"></path><path d="M122.249 71.8496V75.8992V79.9489V83.9985V88.0502H126.301V83.9985V79.9489V75.8992V71.8496H122.249Z" fill="black"></path><path d="M110.1 108.301H106.051V112.35H110.1V108.301Z" fill="black"></path><path d="M97.9492 112.351V116.4H101.999H106.051V112.351H101.999H97.9492Z" fill="black"></path><path d="M110.101 92.1006V96.1502V100.2V104.25V108.301H114.15V104.25V100.2V96.1502H118.2V92.1006H114.15H110.101Z" fill="black"></path><path d="M65.5506 116.4H69.6003V112.351H65.5506H61.501V116.4H65.5506Z" fill="black"></path><path d="M97.9512 116.398H69.5996V120.45H97.9512V116.398Z" fill="black"></path><path d="M89.85 51.5996H85.8004H81.7507H77.6991H73.6494V55.6492H77.6991H81.7507H85.8004H89.85H93.8997V51.5996H89.85Z" fill="black"></path><path d="M97.9491 55.6494H93.8994V59.6991H97.9491V55.6494Z" fill="black"></path><path d="M101.999 59.6992H97.9492V63.7489H101.999V59.6992Z" fill="black"></path><path d="M97.9491 71.8496H93.8994V75.8992H97.9491V71.8496Z" fill="black"></path><path d="M93.8992 67.8008H89.8496V71.8504H93.8992V67.8008Z" fill="black"></path><path d="M89.8504 71.8496H85.8008V75.8992H89.8504V71.8496Z" fill="black"></path><path d="M81.7507 75.9001V71.8504H77.6991V67.8008H73.6494V71.8504H77.6991V75.9001H81.7507Z" fill="black"></path><path d="M73.6492 71.8496H69.5996V75.8992H73.6492V71.8496Z" fill="black"></path><path d="M106.051 75.8999V71.8503V67.8006V63.751H101.999V67.8006V71.8503V75.8999V79.9495V83.9992H106.051H110.1V79.9495H106.051V75.8999Z" fill="black"></path><path d="M114.15 75.8994H110.101V79.9491H114.15V75.8994Z" fill="black"></path><path d="M53.3992 96.1502V100.2V104.25V108.301H57.4509V104.25V100.2V96.1502V92.1006H53.3992H49.3496V96.1502H53.3992Z" fill="black"></path><path d="M49.3494 88.0508H45.2998V92.1004H49.3494V88.0508Z" fill="black"></path><path d="M53.3992 71.8496H49.3496V75.8992H53.3992V71.8496Z" fill="black"></path><path d="M49.3494 67.8008H45.2998V71.8504H49.3494V67.8008Z" fill="black"></path><path d="M41.25 75.8992V79.9489V83.9985V88.0502H45.2996V83.9985V79.9489V75.8992V71.8496H41.25V75.8992Z" fill="black"></path><path d="M57.4491 75.8994H53.3994V79.9491H57.4491V75.8994Z" fill="black"></path><path d="M61.5008 108.301H57.4512V112.35H61.5008V108.301Z" fill="black"></path><path d="M73.6492 55.6494H69.5996V59.6991H73.6492V55.6494Z" fill="black"></path><path d="M69.5994 59.6992H65.5498V63.7489H69.5994V59.6992Z" fill="black"></path><path d="M61.5008 67.8006V71.8503V75.8999V79.9495H57.4512V83.9992H61.5008H65.5505V79.9495V75.8999V71.8503V67.8006V63.751H61.5008V67.8006Z" fill="black"></path><path d="M77.6991 39.4509H81.7507V35.3992H85.8004V39.4509H89.85V43.5006H93.8997H97.9493V39.4509H93.8997V35.3992H89.85V31.3496H85.8004H81.7507H77.6991H73.6494V35.3992H77.6991V39.4509Z" fill="black"></path><path d="M69.5994 43.5006H73.6491H77.6987V39.4509H73.6491V35.3992H69.5994V31.3496H65.5498V35.3992V39.4509H69.5994V43.5006Z" fill="black"></path><path d="M97.9491 39.4509H101.999V35.3992V31.3496H97.9491H93.8994V35.3992H97.9491V39.4509Z" fill="black"></path><path class="confetti" d="M53.3992 27.2998H49.3496V31.3494H53.3992V27.2998Z" fill="#39B54A"></path><path class="confetti" d="M57.4491 23.25H53.3994V27.2996H57.4491V23.25Z" fill="#39B54A"></path><path class="confetti" d="M29.0994 35.3994H25.0498V39.4491H29.0994V35.3994Z" fill="#F941E7"></path><path class="confetti" d="M25.0496 31.3496H21V35.3992H25.0496V31.3496Z" fill="#F941E7"></path><path class="confetti" d="M29.0994 27.2998H25.0498V31.3494H29.0994V27.2998Z" fill="#F941E7"></path><path class="confetti" d="M33.1492 23.25H29.0996V27.2996H33.1492V23.25Z" fill="#F941E7"></path><path class="confetti" d="M29.0994 19.2002H25.0498V23.2498H29.0994V19.2002Z" fill="#F941E7"></path><path d="M73.6492 83.999H69.5996V88.0487H73.6492V83.999Z" fill="#FBBE06"></path><path d="M89.8502 112.351H85.8005H81.7509H77.6992V116.4H81.7509H85.8005H89.8502H93.8998H97.9495V112.351H93.8998H89.8502Z" fill="#FBBE06"></path><path d="M69.5994 108.301H65.5498V112.35H69.5994V108.301Z" fill="#FBBE06"></path><path d="M118.2 79.9491H114.15V83.9987H110.1H106.051V88.0504V92.1H110.1V88.0504H114.15H118.2V83.9987H122.249V79.9491V75.8994H118.2V79.9491Z" fill="#FBBE06"></path><path d="M106.049 108.301H101.999V112.35H106.049V108.301Z" fill="#FBBE06"></path><path d="M85.8005 92.1004V88.0507H89.8502V83.999H85.8005H81.7509H77.6992V88.0507H81.7509V92.1004H85.8005Z" fill="#FBBE06"></path><path d="M110.1 104.249H106.051V108.299H110.1V104.249Z" fill="#FBBE06"></path><path d="M69.5994 79.9492H65.5498V83.9989H69.5994V79.9492Z" fill="#FBBE06"></path><path d="M85.8006 71.8496H81.751V75.8992H85.8006V71.8496Z" fill="#FBBE06"></path><path d="M53.3991 83.9987V79.9491H49.3494V75.8994H45.2998V79.9491V83.9987H49.3494V88.0504H53.3991H57.4508V92.1H61.5004V88.0504V83.9987H57.4508H53.3991Z" fill="#FBBE06"></path><path d="M61.5008 104.249H57.4512V108.299H61.5008V104.249Z" fill="#FBBE06"></path><path d="M101.999 63.751H97.9492V67.8006H101.999V63.751Z" fill="#FBBE06"></path><path d="M69.5994 63.751H65.5498V67.8006H69.5994V63.751Z" fill="#FBBE06"></path><path d="M85.8005 59.6991H89.8502H93.8998V55.6494H89.8502H85.8005H81.7509H77.6992V59.6991H81.7509H85.8005Z" fill="#FBBE06"></path><path d="M101.999 79.9492H97.9491V83.9989H93.8994V88.0505H97.9491V83.9989H101.999V79.9492Z" fill="#FBBE06"></path><path class="confetti" d="M130.35 3H126.301V7.04964H130.35V3Z" fill="#FBBE06"></path><path class="confetti" d="M134.4 7.0498H130.351V11.0994H134.4V7.0498Z" fill="#FBBE06"></path><path class="confetti" d="M130.35 11.0996H126.301V15.1492H130.35V11.0996Z" fill="#FBBE06"></path><path class="confetti" d="M126.299 15.1514H122.249V19.201H126.299V15.1514Z" fill="#FBBE06"></path><path class="confetti" d="M130.35 19.2002H126.301V23.2498H130.35V19.2002Z" fill="#FBBE06"></path><path class="confetti" d="M114.15 51.5998V55.6494H118.2V51.5998H114.15Z" fill="#39B54A"></path><path class="confetti" d="M110.101 47.55V51.5996H114.15V47.55H110.101Z" fill="#39B54A"></path><path class="confetti" d="M33.1484 55.6496V59.6992H37.1981V55.6496H33.1484Z" fill="#E73E3C"></path><path class="confetti" d="M29.0996 51.6017V55.6514H33.1492V51.6017H29.0996Z" fill="#E73E3C"></path><path class="confetti" d="M142.502 39.4513V43.501H146.552V39.4513H142.502Z" fill="#29ABE2"></path><path class="confetti" d="M138.45 35.4015V39.4512H142.5V35.4015H138.45Z" fill="#29ABE2"></path><path class="confetti" d="M114.15 19.2002H110.101V23.2498H114.15V19.2002Z" fill="#F941E7"></path><path class="confetti" d="M118.2 23.25H114.15V27.2996V31.3493H118.2V27.2996V23.25Z" fill="#F941E7"></path><path class="confetti" d="M122.249 31.3496H118.199V35.3992H122.249V31.3496Z" fill="#F941E7"></path><path class="confetti" d="M97.9491 3H93.8994V7.04964H97.9491V3Z" fill="#E73E3C"></path><path class="confetti" d="M85.8008 7.0498V11.0994H89.8504H93.9001V7.0498H89.8504H85.8008Z" fill="#E73E3C"></path><path class="confetti" d="M85.8006 11.0996H81.751V15.1492H85.8006V11.0996Z" fill="#E73E3C"></path><path class="confetti" d="M130.35 43.501H126.301V47.5506H130.35V43.501Z" fill="#E73E3C"></path><path class="confetti" d="M49.3494 47.5498H45.2998V51.5994H49.3494V47.5498Z" fill="#F941E7"></path><path class="confetti" d="M138.45 59.6992H134.4V63.7489H138.45V59.6992Z" fill="#F941E7"></path><path class="confetti" d="M57.4491 3H53.3994V7.04964H57.4491V3Z" fill="#29ABE2"></path><path d="M65.5506 136.65H61.501V140.7H65.5506V136.65Z" fill="#999999"></path><path d="M65.5506 140.7H61.501V144.75H65.5506V140.7Z" fill="#B3B3B3"></path><path d="M65.5506 144.75H61.501V148.8H65.5506V144.75Z" fill="#CCCCCC"></path><path d="M106.049 136.65H101.999V140.7H106.049V136.65Z" fill="#999999"></path><path d="M106.049 140.7H101.999V144.75H106.049V140.7Z" fill="#B3B3B3"></path><path d="M106.049 144.75H101.999V148.8H106.049V144.75Z" fill="#CCCCCC"></path><path d="M61.501 132.601V136.65H65.5506V132.601V128.549H61.501V132.601Z" fill="#666666"></path><path d="M101.999 128.549V132.601V136.65H106.051V132.601V128.549H101.999Z" fill="#666666"></path><path d="M81.751 140.7V144.75H85.8006V140.7V136.65H81.751V140.7Z" fill="#666666"></path><path d="M81.751 144.75V148.8V152.849H85.8006V148.8V144.75H81.751Z" fill="#999999"></path><path d="M85.8006 152.849H81.751V156.898H85.8006V152.849Z" fill="#B3B3B3"></path><path d="M85.8006 156.9H81.751V160.95H85.8006V156.9Z" fill="#CCCCCC"></path><path d="M85.8006 160.95H81.751V165H85.8006V160.95Z" fill="#E6E6E6"></path></svg>